<svg width="98" height="90" viewBox="0 0 98 90" fill="none" xmlns="http://www.w3.org/2000/svg">
<ellipse cx="49.2284" cy="45" rx="48.3221" ry="45" fill="#EA7186"/>
<path d="M34.0117 21.6964C23.5906 21.6964 14.7124 28.956 14.7124 38.3845C14.7124 44.8888 17.9815 50.3648 22.314 54.9009C26.6317 59.4215 32.2022 63.2159 37.2381 66.3918L45.927 71.8713C46.8785 72.4714 48.1263 72.4714 49.0779 71.8713L57.7667 66.3918C62.8027 63.2159 68.3731 59.4215 72.6908 54.9009C77.0234 50.3648 80.2925 44.8888 80.2925 38.3845C80.2925 28.956 71.4143 21.6964 60.9932 21.6964C55.6213 21.6964 50.8945 24.0431 47.5024 27.0795C44.1104 24.0431 39.3835 21.6964 34.0117 21.6964Z" fill="white"/>
</svg>
