<svg width="24" height="24" viewBox="0 0 24 24" fill="none" xmlns="http://www.w3.org/2000/svg">
<path d="M12.0002 8.75005C10.2053 8.75005 8.75018 10.2051 8.75018 12C8.75018 13.795 10.2053 15.25 12.0002 15.25C13.7951 15.25 15.2502 13.795 15.2502 12C15.2502 10.2051 13.7951 8.75005 12.0002 8.75005Z" fill="white"/>
<path fill-rule="evenodd" clip-rule="evenodd" d="M6.76972 3.08151C10.2178 2.69614 13.7825 2.69614 17.2307 3.08151C19.1291 3.29369 20.6603 4.78947 20.8831 6.69452C21.2954 10.2195 21.2954 13.7806 20.8831 17.3056C20.6603 19.2106 19.1291 20.7064 17.2307 20.9186C13.7825 21.304 10.2178 21.304 6.76972 20.9186C4.87132 20.7064 3.34013 19.2106 3.11732 17.3056C2.70504 13.7806 2.70504 10.2195 3.11732 6.69452C3.34013 4.78947 4.87132 3.29369 6.76972 3.08151ZM17.0002 6.00005C16.4479 6.00005 16.0002 6.44776 16.0002 7.00005C16.0002 7.55233 16.4479 8.00005 17.0002 8.00005C17.5525 8.00005 18.0002 7.55233 18.0002 7.00005C18.0002 6.44776 17.5525 6.00005 17.0002 6.00005ZM7.25018 12C7.25018 9.37669 9.37683 7.25005 12.0002 7.25005C14.6235 7.25005 16.7502 9.37669 16.7502 12C16.7502 14.6234 14.6235 16.75 12.0002 16.75C9.37683 16.75 7.25018 14.6234 7.25018 12Z" fill="white"/>
</svg>
