<svg width="138" height="121" viewBox="0 0 138 121" fill="none" xmlns="http://www.w3.org/2000/svg">
<path d="M41.9646 36C27.9444 36 16 46.4831 16 60.0981C16 69.4905 20.3981 77.3981 26.227 83.9484C32.0358 90.4762 39.5302 95.9556 46.3053 100.542L57.995 108.454C59.2752 109.321 60.954 109.321 62.2342 108.454L73.9238 100.542C80.699 95.9556 88.1933 90.4762 94.0022 83.9484C99.8311 77.3981 104.229 69.4905 104.229 60.0981C104.229 46.4831 92.2847 36 78.2646 36C71.0375 36 64.6781 39.3887 60.1146 43.7734C55.5511 39.3887 49.1917 36 41.9646 36Z" fill="white"/>
<path d="M7.43555 20H4.71973V12.5645C4.71973 12.3594 4.72266 12.1074 4.72852 11.8086C4.73438 11.5039 4.74316 11.1934 4.75488 10.877C4.7666 10.5547 4.77832 10.2646 4.79004 10.0068C4.72559 10.083 4.59375 10.2148 4.39453 10.4023C4.20117 10.584 4.01953 10.748 3.84961 10.8945L2.37305 12.0811L1.06348 10.4463L5.20312 7.15039H7.43555V20ZM22.6336 13.5752C22.6336 14.6123 22.5516 15.5381 22.3875 16.3525C22.2293 17.167 21.9715 17.8584 21.6141 18.4268C21.2625 18.9951 20.7996 19.4287 20.2254 19.7275C19.6512 20.0264 18.9539 20.1758 18.1336 20.1758C17.1023 20.1758 16.2557 19.915 15.5936 19.3936C14.9314 18.8662 14.4422 18.1104 14.1258 17.126C13.8094 16.1357 13.6512 14.9521 13.6512 13.5752C13.6512 12.1865 13.7947 11 14.0818 10.0156C14.3748 9.02539 14.8494 8.2666 15.5057 7.73926C16.1619 7.21191 17.0379 6.94824 18.1336 6.94824C19.159 6.94824 20.0027 7.21191 20.6648 7.73926C21.3328 8.26074 21.8279 9.0166 22.1502 10.0068C22.4725 10.9912 22.6336 12.1807 22.6336 13.5752ZM16.3494 13.5752C16.3494 14.5537 16.4021 15.3711 16.5076 16.0273C16.6189 16.6777 16.8035 17.167 17.0613 17.4951C17.3191 17.8232 17.6766 17.9873 18.1336 17.9873C18.5848 17.9873 18.9393 17.8262 19.1971 17.5039C19.4607 17.1758 19.6482 16.6865 19.7596 16.0361C19.8709 15.3799 19.9266 14.5596 19.9266 13.5752C19.9266 12.5967 19.8709 11.7793 19.7596 11.123C19.6482 10.4668 19.4607 9.97461 19.1971 9.64648C18.9393 9.3125 18.5848 9.14551 18.1336 9.14551C17.6766 9.14551 17.3191 9.3125 17.0613 9.64648C16.8035 9.97461 16.6189 10.4668 16.5076 11.123C16.4021 11.7793 16.3494 12.5967 16.3494 13.5752ZM35.6344 13.5752C35.6344 14.6123 35.5523 15.5381 35.3883 16.3525C35.2301 17.167 34.9723 17.8584 34.6148 18.4268C34.2633 18.9951 33.8004 19.4287 33.2262 19.7275C32.652 20.0264 31.9547 20.1758 31.1344 20.1758C30.1031 20.1758 29.2564 19.915 28.5943 19.3936C27.9322 18.8662 27.443 18.1104 27.1266 17.126C26.8102 16.1357 26.652 14.9521 26.652 13.5752C26.652 12.1865 26.7955 11 27.0826 10.0156C27.3756 9.02539 27.8502 8.2666 28.5064 7.73926C29.1627 7.21191 30.0387 6.94824 31.1344 6.94824C32.1598 6.94824 33.0035 7.21191 33.6656 7.73926C34.3336 8.26074 34.8287 9.0166 35.151 10.0068C35.4732 10.9912 35.6344 12.1807 35.6344 13.5752ZM29.3502 13.5752C29.3502 14.5537 29.4029 15.3711 29.5084 16.0273C29.6197 16.6777 29.8043 17.167 30.0621 17.4951C30.3199 17.8232 30.6773 17.9873 31.1344 17.9873C31.5855 17.9873 31.94 17.8262 32.1979 17.5039C32.4615 17.1758 32.649 16.6865 32.7604 16.0361C32.8717 15.3799 32.9273 14.5596 32.9273 13.5752C32.9273 12.5967 32.8717 11.7793 32.7604 11.123C32.649 10.4668 32.4615 9.97461 32.1979 9.64648C31.94 9.3125 31.5855 9.14551 31.1344 9.14551C30.6773 9.14551 30.3199 9.3125 30.0621 9.64648C29.8043 9.97461 29.6197 10.4668 29.5084 11.123C29.4029 11.7793 29.3502 12.5967 29.3502 13.5752ZM58.6564 13.4521C58.6564 14.8994 58.3781 16.1094 57.8215 17.082C57.2707 18.0488 56.4709 18.7783 55.4221 19.2705C54.3732 19.7568 53.1105 20 51.634 20H47.9953V7.15039H52.0295C53.3771 7.15039 54.5461 7.39062 55.5363 7.87109C56.5266 8.3457 57.2941 9.05176 57.8391 9.98926C58.384 10.9209 58.6564 12.0752 58.6564 13.4521ZM55.8264 13.5225C55.8264 12.5732 55.6857 11.7939 55.4045 11.1846C55.1291 10.5693 54.7189 10.1152 54.174 9.82227C53.635 9.5293 52.967 9.38281 52.1701 9.38281H50.7199V17.75H51.8889C53.2189 17.75 54.2062 17.3955 54.8508 16.6865C55.5012 15.9775 55.8264 14.9229 55.8264 13.5225ZM71.8857 20L70.9541 16.9414H66.2695L65.3379 20H62.4023L66.9375 7.09766H70.2686L74.8213 20H71.8857ZM70.3037 14.6562L69.3721 11.668C69.3135 11.4688 69.2344 11.2139 69.1348 10.9033C69.041 10.5869 68.9443 10.2676 68.8447 9.94531C68.751 9.61719 68.6748 9.33301 68.6162 9.09277C68.5576 9.33301 68.4756 9.63184 68.3701 9.98926C68.2705 10.3408 68.1738 10.6748 68.0801 10.9912C67.9863 11.3076 67.9189 11.5332 67.8779 11.668L66.9551 14.6562H70.3037ZM83.1463 12.4414L85.827 7.15039H88.7625L84.4998 14.999V20H81.7928V15.0869L77.5301 7.15039H80.4832L83.1463 12.4414ZM100.665 16.4316C100.665 17.1934 100.48 17.8555 100.111 18.418C99.7418 18.9805 99.2027 19.4141 98.4938 19.7188C97.7906 20.0234 96.9352 20.1758 95.9273 20.1758C95.482 20.1758 95.0455 20.1465 94.6178 20.0879C94.1959 20.0293 93.7887 19.9443 93.3961 19.833C93.0094 19.7158 92.6402 19.5723 92.2887 19.4023V16.8711C92.898 17.1406 93.5309 17.3838 94.1871 17.6006C94.8434 17.8174 95.4938 17.9258 96.1383 17.9258C96.5836 17.9258 96.941 17.8672 97.2105 17.75C97.4859 17.6328 97.6852 17.4717 97.8082 17.2666C97.9313 17.0615 97.9928 16.8271 97.9928 16.5635C97.9928 16.2412 97.8844 15.9658 97.6676 15.7373C97.4508 15.5088 97.152 15.2949 96.7711 15.0957C96.3961 14.8965 95.9713 14.6826 95.4967 14.4541C95.1979 14.3135 94.8727 14.1436 94.5211 13.9443C94.1695 13.7393 93.8355 13.4902 93.5191 13.1973C93.2027 12.9043 92.942 12.5498 92.7369 12.1338C92.5377 11.7119 92.4381 11.208 92.4381 10.6221C92.4381 9.85449 92.6139 9.19824 92.9654 8.65332C93.317 8.1084 93.818 7.69238 94.4684 7.40527C95.1246 7.1123 95.898 6.96582 96.7887 6.96582C97.4566 6.96582 98.0924 7.04492 98.6959 7.20312C99.3053 7.35547 99.941 7.57813 100.603 7.87109L99.7242 9.98926C99.1324 9.74902 98.6021 9.56445 98.1334 9.43555C97.6646 9.30078 97.1871 9.2334 96.7008 9.2334C96.3609 9.2334 96.0709 9.28906 95.8307 9.40039C95.5904 9.50586 95.4088 9.6582 95.2857 9.85742C95.1627 10.0508 95.1012 10.2764 95.1012 10.5342C95.1012 10.8389 95.1891 11.0967 95.3648 11.3076C95.5465 11.5127 95.816 11.7119 96.1734 11.9053C96.5367 12.0986 96.9879 12.3242 97.527 12.582C98.1832 12.8926 98.7428 13.2178 99.2057 13.5576C99.6744 13.8916 100.035 14.2871 100.287 14.7441C100.539 15.1953 100.665 15.7578 100.665 16.4316ZM124.733 13.5576C124.733 14.5479 124.61 15.4502 124.363 16.2646C124.117 17.0732 123.742 17.7705 123.238 18.3564C122.74 18.9424 122.108 19.3936 121.34 19.71C120.572 20.0205 119.664 20.1758 118.615 20.1758C117.567 20.1758 116.658 20.0205 115.891 19.71C115.123 19.3936 114.488 18.9424 113.984 18.3564C113.486 17.7705 113.113 17.0703 112.867 16.2559C112.621 15.4414 112.498 14.5361 112.498 13.54C112.498 12.21 112.715 11.0527 113.149 10.0684C113.588 9.07812 114.262 8.31055 115.17 7.76562C116.078 7.2207 117.233 6.94824 118.633 6.94824C120.028 6.94824 121.173 7.2207 122.07 7.76562C122.972 8.31055 123.64 9.07812 124.073 10.0684C124.513 11.0586 124.733 12.2217 124.733 13.5576ZM115.355 13.5576C115.355 14.4541 115.466 15.2275 115.689 15.8779C115.917 16.5225 116.272 17.0205 116.752 17.3721C117.233 17.7178 117.854 17.8906 118.615 17.8906C119.389 17.8906 120.016 17.7178 120.496 17.3721C120.977 17.0205 121.325 16.5225 121.542 15.8779C121.765 15.2275 121.876 14.4541 121.876 13.5576C121.876 12.21 121.624 11.1494 121.12 10.376C120.616 9.60254 119.787 9.21582 118.633 9.21582C117.865 9.21582 117.238 9.3916 116.752 9.74316C116.272 10.0889 115.917 10.5869 115.689 11.2373C115.466 11.8818 115.355 12.6553 115.355 13.5576ZM132.776 20H130.096V7.15039H137.461V9.38281H132.776V12.6963H137.136V14.9199H132.776V20Z" fill="white"/>
<path d="M27.5977 70.1172C26.9492 70.1172 26.3965 70 25.9395 69.7656C25.4824 69.5273 25.1348 69.1602 24.8965 68.6641C24.6582 68.168 24.5391 67.5332 24.5391 66.7598C24.5391 65.959 24.6738 65.3066 24.9434 64.8027C25.2168 64.2949 25.5938 63.9219 26.0742 63.6836C26.5586 63.4453 27.1191 63.3262 27.7559 63.3262C28.209 63.3262 28.5996 63.3711 28.9277 63.4609C29.2598 63.5469 29.5488 63.6504 29.7949 63.7715L29.2676 65.1543C28.9863 65.041 28.7246 64.9492 28.4824 64.8789C28.2402 64.8047 27.998 64.7676 27.7559 64.7676C27.4434 64.7676 27.1836 64.8418 26.9766 64.9902C26.7695 65.1348 26.6152 65.3535 26.5137 65.6465C26.4121 65.9395 26.3613 66.3066 26.3613 66.748C26.3613 67.1816 26.416 67.541 26.5254 67.8262C26.6348 68.1113 26.793 68.3242 27 68.4648C27.207 68.6016 27.459 68.6699 27.7559 68.6699C28.127 68.6699 28.457 68.6211 28.7461 68.5234C29.0352 68.4219 29.3164 68.2812 29.5898 68.1016V69.6309C29.3164 69.8027 29.0293 69.9258 28.7285 70C28.4316 70.0781 28.0547 70.1172 27.5977 70.1172ZM34.7004 60.8828V62.7402C34.7004 63.0645 34.6887 63.373 34.6652 63.666C34.6457 63.959 34.6301 64.166 34.6184 64.2871H34.7121C34.8527 64.0605 35.0188 63.877 35.2102 63.7363C35.4055 63.5957 35.6203 63.4922 35.8547 63.4258C36.0891 63.3594 36.341 63.3262 36.6105 63.3262C37.0832 63.3262 37.4953 63.4102 37.8469 63.5781C38.1984 63.7422 38.4719 64.002 38.6672 64.3574C38.8625 64.709 38.9602 65.166 38.9602 65.7285V70H37.173V66.1738C37.173 65.7051 37.0871 65.3516 36.9152 65.1133C36.7434 64.875 36.4777 64.7559 36.1184 64.7559C35.759 64.7559 35.4758 64.8398 35.2688 65.0078C35.0617 65.1719 34.9152 65.416 34.8293 65.7402C34.7434 66.0605 34.7004 66.4531 34.7004 66.918V70H32.9133V60.8828H34.7004ZM45.2836 63.3145C46.1625 63.3145 46.8363 63.5059 47.3051 63.8887C47.7738 64.2715 48.0082 64.8535 48.0082 65.6348V70H46.7602L46.4145 69.1094H46.3676C46.1801 69.3438 45.9887 69.5352 45.7934 69.6836C45.598 69.832 45.3734 69.9414 45.1195 70.0117C44.8656 70.082 44.557 70.1172 44.1938 70.1172C43.807 70.1172 43.4594 70.043 43.1508 69.8945C42.8461 69.7461 42.6059 69.5195 42.4301 69.2148C42.2543 68.9062 42.1664 68.5156 42.1664 68.043C42.1664 67.3477 42.4105 66.8359 42.8988 66.5078C43.3871 66.1758 44.1195 65.9922 45.0961 65.957L46.2328 65.9219V65.6348C46.2328 65.291 46.143 65.0391 45.9633 64.8789C45.7836 64.7188 45.5336 64.6387 45.2133 64.6387C44.8969 64.6387 44.5863 64.6836 44.2816 64.7734C43.977 64.8633 43.6723 64.9766 43.3676 65.1133L42.7758 63.9062C43.1234 63.7227 43.5121 63.5781 43.9418 63.4727C44.3754 63.3672 44.8227 63.3145 45.2836 63.3145ZM46.2328 66.9648L45.5414 66.9883C44.9633 67.0039 44.5609 67.1074 44.3344 67.2988C44.1117 67.4902 44.0004 67.7422 44.0004 68.0547C44.0004 68.3281 44.0805 68.5234 44.2406 68.6406C44.4008 68.7539 44.6098 68.8105 44.8676 68.8105C45.2504 68.8105 45.5727 68.6973 45.8344 68.4707C46.1 68.2441 46.2328 67.9219 46.2328 67.5039V66.9648ZM53.441 70H51.6539V60.8828H53.441V70ZM58.909 70H57.1219V60.8828H58.909V70ZM65.291 63.3262C65.8965 63.3262 66.418 63.4434 66.8555 63.6777C67.293 63.9082 67.6309 64.2441 67.8691 64.6855C68.1074 65.127 68.2266 65.666 68.2266 66.3027V67.1699H64.002C64.0215 67.6738 64.1719 68.0703 64.4531 68.3594C64.7383 68.6445 65.1328 68.7871 65.6367 68.7871C66.0547 68.7871 66.4375 68.7441 66.7852 68.6582C67.1328 68.5723 67.4902 68.4434 67.8574 68.2715V69.6543C67.5332 69.8145 67.1934 69.9316 66.8379 70.0059C66.4863 70.0801 66.0586 70.1172 65.5547 70.1172C64.8984 70.1172 64.3164 69.9961 63.8086 69.7539C63.3047 69.5117 62.9082 69.1426 62.6191 68.6465C62.334 68.1504 62.1914 67.5254 62.1914 66.7715C62.1914 66.0059 62.3203 65.3691 62.5781 64.8613C62.8398 64.3496 63.2031 63.9668 63.668 63.7129C64.1328 63.4551 64.6738 63.3262 65.291 63.3262ZM65.3027 64.5977C64.9551 64.5977 64.666 64.709 64.4355 64.9316C64.209 65.1543 64.0781 65.5039 64.043 65.9805H66.5508C66.5469 65.7148 66.498 65.4785 66.4043 65.2715C66.3145 65.0645 66.1777 64.9004 65.9941 64.7793C65.8145 64.6582 65.584 64.5977 65.3027 64.5977ZM75.2004 63.3262C75.8996 63.3262 76.4621 63.5176 76.8879 63.9004C77.3137 64.2793 77.5266 64.8887 77.5266 65.7285V70H75.7395V66.1738C75.7395 65.7051 75.6535 65.3516 75.4816 65.1133C75.3137 64.875 75.048 64.7559 74.6848 64.7559C74.1379 64.7559 73.7648 64.9414 73.5656 65.3125C73.3664 65.6836 73.2668 66.2188 73.2668 66.918V70H71.4797V63.4492H72.8449L73.0852 64.2871H73.1848C73.3254 64.0605 73.4992 63.877 73.7062 63.7363C73.9172 63.5957 74.1496 63.4922 74.4035 63.4258C74.6613 63.3594 74.927 63.3262 75.2004 63.3262ZM83.0824 72.8828C82.1684 72.8828 81.4691 72.7227 80.9848 72.4023C80.5043 72.0859 80.2641 71.6406 80.2641 71.0664C80.2641 70.6719 80.3871 70.3418 80.6332 70.0762C80.8793 69.8105 81.2406 69.6211 81.7172 69.5078C81.5336 69.4297 81.3734 69.3027 81.2367 69.127C81.1 68.9473 81.0316 68.7578 81.0316 68.5586C81.0316 68.3086 81.1039 68.1016 81.2484 67.9375C81.393 67.7695 81.602 67.6055 81.8754 67.4453C81.5316 67.2969 81.2582 67.0586 81.0551 66.7305C80.8559 66.4023 80.7562 66.0156 80.7562 65.5703C80.7562 65.0938 80.8598 64.6895 81.0668 64.3574C81.2777 64.0215 81.5824 63.7656 81.9809 63.5898C82.3832 63.4141 82.8715 63.3262 83.4457 63.3262C83.5668 63.3262 83.7074 63.334 83.8676 63.3496C84.0277 63.3652 84.1742 63.3828 84.307 63.4023C84.4437 63.4219 84.5355 63.4375 84.5824 63.4492H86.8676V64.3574L85.8422 64.6211C85.9359 64.7656 86.0062 64.9199 86.0531 65.084C86.1 65.248 86.1234 65.4219 86.1234 65.6055C86.1234 66.3086 85.8773 66.8574 85.3852 67.252C84.8969 67.6426 84.2172 67.8379 83.3461 67.8379C83.1391 67.8262 82.9437 67.8105 82.7602 67.791C82.6703 67.8613 82.602 67.9355 82.5551 68.0137C82.5082 68.0918 82.4848 68.1738 82.4848 68.2598C82.4848 68.3457 82.5199 68.418 82.5902 68.4766C82.6645 68.5312 82.7738 68.5742 82.9184 68.6055C83.0668 68.6328 83.2504 68.6465 83.4691 68.6465H84.5824C85.3012 68.6465 85.848 68.8008 86.223 69.1094C86.602 69.418 86.7914 69.8711 86.7914 70.4688C86.7914 71.2344 86.4711 71.8281 85.8305 72.25C85.1937 72.6719 84.2777 72.8828 83.0824 72.8828ZM83.1586 71.7168C83.5844 71.7168 83.9496 71.6758 84.2543 71.5938C84.5629 71.5156 84.7992 71.4023 84.9633 71.2539C85.1273 71.1094 85.2094 70.9355 85.2094 70.7324C85.2094 70.5684 85.1605 70.4375 85.0629 70.3398C84.9691 70.2461 84.8246 70.1797 84.6293 70.1406C84.4379 70.1016 84.1918 70.082 83.891 70.082H82.9652C82.7465 70.082 82.5492 70.1172 82.3734 70.1875C82.2016 70.2578 82.0648 70.3555 81.9633 70.4805C81.8617 70.6094 81.8109 70.7578 81.8109 70.9258C81.8109 71.1719 81.9281 71.3652 82.1625 71.5059C82.4008 71.6465 82.7328 71.7168 83.1586 71.7168ZM83.4457 66.748C83.7816 66.748 84.0277 66.6445 84.184 66.4375C84.3402 66.2305 84.4184 65.9492 84.4184 65.5938C84.4184 65.1992 84.3363 64.9043 84.1723 64.709C84.0121 64.5098 83.7699 64.4102 83.4457 64.4102C83.1176 64.4102 82.8715 64.5098 82.7074 64.709C82.5434 64.9043 82.4613 65.1992 82.4613 65.5938C82.4613 65.9492 82.5414 66.2305 82.7016 66.4375C82.8656 66.6445 83.1137 66.748 83.4457 66.748ZM92.4527 63.3262C93.0582 63.3262 93.5797 63.4434 94.0172 63.6777C94.4547 63.9082 94.7926 64.2441 95.0309 64.6855C95.2691 65.127 95.3883 65.666 95.3883 66.3027V67.1699H91.1637C91.1832 67.6738 91.3336 68.0703 91.6148 68.3594C91.9 68.6445 92.2945 68.7871 92.7984 68.7871C93.2164 68.7871 93.5992 68.7441 93.9469 68.6582C94.2945 68.5723 94.652 68.4434 95.0191 68.2715V69.6543C94.6949 69.8145 94.3551 69.9316 93.9996 70.0059C93.648 70.0801 93.2203 70.1172 92.7164 70.1172C92.0602 70.1172 91.4781 69.9961 90.9703 69.7539C90.4664 69.5117 90.0699 69.1426 89.7809 68.6465C89.4957 68.1504 89.3531 67.5254 89.3531 66.7715C89.3531 66.0059 89.482 65.3691 89.7398 64.8613C90.0016 64.3496 90.3648 63.9668 90.8297 63.7129C91.2945 63.4551 91.8355 63.3262 92.4527 63.3262ZM92.4645 64.5977C92.1168 64.5977 91.8277 64.709 91.5973 64.9316C91.3707 65.1543 91.2398 65.5039 91.2047 65.9805H93.7125C93.7086 65.7148 93.6598 65.4785 93.566 65.2715C93.4762 65.0645 93.3395 64.9004 93.1559 64.7793C92.9762 64.6582 92.7457 64.5977 92.4645 64.5977Z" fill="#E79EAD"/>
</svg>
