<svg width="77" height="58" viewBox="0 0 77 58" fill="none" xmlns="http://www.w3.org/2000/svg">
<path d="M4.13086 21.8843H2.62207V17.7534C2.62207 17.6395 2.6237 17.4995 2.62695 17.3335C2.63021 17.1643 2.63509 16.9917 2.6416 16.8159C2.64811 16.6369 2.65462 16.4758 2.66113 16.3326C2.62533 16.3749 2.55208 16.4481 2.44141 16.5523C2.33398 16.6532 2.23307 16.7443 2.13867 16.8257L1.31836 17.4849L0.59082 16.5767L2.89062 14.7456H4.13086V21.8843ZM12.5742 18.315C12.5742 18.8911 12.5286 19.4055 12.4375 19.8579C12.3496 20.3104 12.2064 20.6945 12.0078 21.0103C11.8125 21.326 11.5553 21.5669 11.2363 21.7329C10.9173 21.899 10.5299 21.982 10.0742 21.982C9.5013 21.982 9.03092 21.8371 8.66309 21.5474C8.29525 21.2544 8.02344 20.8345 7.84766 20.2876C7.67188 19.7375 7.58398 19.0799 7.58398 18.315C7.58398 17.5435 7.66374 16.8843 7.82324 16.3374C7.986 15.7873 8.24967 15.3658 8.61426 15.0728C8.97884 14.7798 9.46549 14.6333 10.0742 14.6333C10.6439 14.6333 11.1126 14.7798 11.4805 15.0728C11.8516 15.3625 12.1266 15.7824 12.3057 16.3326C12.4847 16.8794 12.5742 17.5402 12.5742 18.315ZM9.08301 18.315C9.08301 18.8586 9.1123 19.3127 9.1709 19.6773C9.23275 20.0386 9.33529 20.3104 9.47852 20.4927C9.62174 20.675 9.82031 20.7661 10.0742 20.7661C10.3249 20.7661 10.5218 20.6766 10.665 20.4976C10.8115 20.3153 10.9157 20.0435 10.9775 19.6822C11.0394 19.3176 11.0703 18.8618 11.0703 18.315C11.0703 17.7714 11.0394 17.3173 10.9775 16.9527C10.9157 16.5881 10.8115 16.3146 10.665 16.1324C10.5218 15.9468 10.3249 15.854 10.0742 15.854C9.82031 15.854 9.62174 15.9468 9.47852 16.1324C9.33529 16.3146 9.23275 16.5881 9.1709 16.9527C9.1123 17.3173 9.08301 17.7714 9.08301 18.315ZM19.7969 18.315C19.7969 18.8911 19.7513 19.4055 19.6602 19.8579C19.5723 20.3104 19.429 20.6945 19.2305 21.0103C19.0352 21.326 18.778 21.5669 18.459 21.7329C18.14 21.899 17.7526 21.982 17.2969 21.982C16.724 21.982 16.2536 21.8371 15.8857 21.5474C15.5179 21.2544 15.2461 20.8345 15.0703 20.2876C14.8945 19.7375 14.8066 19.0799 14.8066 18.315C14.8066 17.5435 14.8864 16.8843 15.0459 16.3374C15.2087 15.7873 15.4723 15.3658 15.8369 15.0728C16.2015 14.7798 16.6882 14.6333 17.2969 14.6333C17.8665 14.6333 18.3353 14.7798 18.7031 15.0728C19.0742 15.3625 19.3493 15.7824 19.5283 16.3326C19.7074 16.8794 19.7969 17.5402 19.7969 18.315ZM16.3057 18.315C16.3057 18.8586 16.335 19.3127 16.3936 19.6773C16.4554 20.0386 16.5579 20.3104 16.7012 20.4927C16.8444 20.675 17.043 20.7661 17.2969 20.7661C17.5475 20.7661 17.7445 20.6766 17.8877 20.4976C18.0342 20.3153 18.1383 20.0435 18.2002 19.6822C18.262 19.3176 18.293 18.8618 18.293 18.315C18.293 17.7714 18.262 17.3173 18.2002 16.9527C18.1383 16.5881 18.0342 16.3146 17.8877 16.1324C17.7445 15.9468 17.5475 15.854 17.2969 15.854C17.043 15.854 16.8444 15.9468 16.7012 16.1324C16.5579 16.3146 16.4554 16.5881 16.3936 16.9527C16.335 17.3173 16.3057 17.7714 16.3057 18.315ZM32.5869 18.2466C32.5869 19.0506 32.4323 19.7228 32.123 20.2632C31.8171 20.8003 31.3727 21.2056 30.79 21.479C30.2074 21.7492 29.5059 21.8843 28.6855 21.8843H26.6641V14.7456H28.9053C29.654 14.7456 30.3034 14.8791 30.8535 15.146C31.4036 15.4097 31.8301 15.802 32.1328 16.3228C32.4355 16.8404 32.5869 17.4816 32.5869 18.2466ZM31.0146 18.2857C31.0146 17.7583 30.9365 17.3254 30.7803 16.9868C30.6273 16.6451 30.3994 16.3928 30.0967 16.23C29.7972 16.0673 29.4261 15.9859 28.9834 15.9859H28.1777V20.6343H28.8271C29.5661 20.6343 30.1146 20.4374 30.4727 20.0435C30.834 19.6496 31.0146 19.0637 31.0146 18.2857ZM39.9365 21.8843L39.4189 20.1851H36.8164L36.2988 21.8843H34.668L37.1875 14.7163H39.0381L41.5674 21.8843H39.9365ZM39.0576 18.9156L38.54 17.2554C38.5075 17.1447 38.4635 17.0031 38.4082 16.8306C38.3561 16.6548 38.3024 16.4774 38.2471 16.2984C38.195 16.1161 38.1527 15.9582 38.1201 15.8247C38.0876 15.9582 38.042 16.1242 37.9834 16.3228C37.9281 16.5181 37.8743 16.7036 37.8223 16.8794C37.7702 17.0552 37.7327 17.1805 37.71 17.2554L37.1973 18.9156H39.0576ZM46.1924 17.6851L47.6816 14.7456H49.3125L46.9443 19.106V21.8843H45.4404V19.1548L43.0723 14.7456H44.7129L46.1924 17.6851ZM55.9248 19.9019C55.9248 20.3251 55.8223 20.6929 55.6172 21.0054C55.4121 21.3179 55.1126 21.5588 54.7188 21.7281C54.3281 21.8973 53.8529 21.982 53.293 21.982C53.0456 21.982 52.8031 21.9657 52.5654 21.9331C52.3311 21.9006 52.1048 21.8534 51.8867 21.7915C51.6719 21.7264 51.4668 21.6467 51.2715 21.5523V20.146C51.61 20.2958 51.9616 20.4309 52.3262 20.5513C52.6908 20.6717 53.0521 20.732 53.4102 20.732C53.6576 20.732 53.8561 20.6994 54.0059 20.6343C54.1589 20.5692 54.2695 20.4797 54.3379 20.3658C54.4062 20.2518 54.4404 20.1216 54.4404 19.9751C54.4404 19.7961 54.3802 19.6431 54.2598 19.5161C54.1393 19.3892 53.9733 19.2704 53.7617 19.1597C53.5534 19.049 53.3174 18.9302 53.0537 18.8033C52.8877 18.7251 52.707 18.6307 52.5117 18.5201C52.3164 18.4061 52.1309 18.2678 51.9551 18.105C51.7793 17.9423 51.6344 17.7453 51.5205 17.5142C51.4098 17.2798 51.3545 16.9999 51.3545 16.6743C51.3545 16.2479 51.4521 15.8833 51.6475 15.5806C51.8428 15.2779 52.1211 15.0467 52.4824 14.8872C52.847 14.7245 53.2767 14.6431 53.7715 14.6431C54.1426 14.6431 54.4958 14.687 54.8311 14.7749C55.1696 14.8596 55.5228 14.9833 55.8906 15.146L55.4023 16.3228C55.0736 16.1893 54.779 16.0868 54.5186 16.0152C54.2581 15.9403 53.9928 15.9029 53.7227 15.9029C53.5339 15.9029 53.3727 15.9338 53.2393 15.9956C53.1058 16.0542 53.0049 16.1389 52.9365 16.2495C52.8682 16.357 52.834 16.4823 52.834 16.6255C52.834 16.7948 52.8828 16.938 52.9805 17.0552C53.0814 17.1691 53.2311 17.2798 53.4297 17.3872C53.6315 17.4947 53.8822 17.62 54.1816 17.7632C54.5462 17.9357 54.8571 18.1164 55.1143 18.3052C55.3747 18.4908 55.5749 18.7105 55.7148 18.9644C55.8548 19.215 55.9248 19.5275 55.9248 19.9019ZM69.2959 18.3052C69.2959 18.8553 69.2275 19.3566 69.0908 19.8091C68.9541 20.2583 68.7458 20.6457 68.4658 20.9712C68.1891 21.2967 67.8376 21.5474 67.4111 21.7232C66.9847 21.8957 66.4801 21.982 65.8975 21.982C65.3148 21.982 64.8102 21.8957 64.3838 21.7232C63.9574 21.5474 63.6042 21.2967 63.3242 20.9712C63.0475 20.6457 62.8408 20.2567 62.7041 19.8042C62.5674 19.3518 62.499 18.8488 62.499 18.2954C62.499 17.5565 62.6195 16.9136 62.8604 16.3667C63.1045 15.8166 63.4788 15.3902 63.9834 15.0874C64.488 14.7847 65.1292 14.6333 65.9072 14.6333C66.682 14.6333 67.3184 14.7847 67.8164 15.0874C68.3177 15.3902 68.6888 15.8166 68.9297 16.3667C69.1738 16.9169 69.2959 17.563 69.2959 18.3052ZM64.0859 18.3052C64.0859 18.8033 64.1478 19.2329 64.2715 19.5943C64.3984 19.9523 64.5954 20.229 64.8623 20.4243C65.1292 20.6164 65.4743 20.7124 65.8975 20.7124C66.3271 20.7124 66.6755 20.6164 66.9424 20.4243C67.2093 20.229 67.403 19.9523 67.5234 19.5943C67.6471 19.2329 67.709 18.8033 67.709 18.3052C67.709 17.5565 67.569 16.9673 67.2891 16.5376C67.0091 16.1079 66.5485 15.8931 65.9072 15.8931C65.4808 15.8931 65.1325 15.9908 64.8623 16.1861C64.5954 16.3781 64.3984 16.6548 64.2715 17.0161C64.1478 17.3742 64.0859 17.8039 64.0859 18.3052ZM73.7646 21.8843H72.2754V14.7456H76.3672V15.9859H73.7646V17.8267H76.1865V19.062H73.7646V21.8843Z" fill="white"/>
<path d="M19.8208 28.562C14.259 28.562 9.52075 32.7206 9.52075 38.1216C9.52075 41.8475 11.2654 44.9843 13.5777 47.5828C15.8821 50.1724 18.855 52.346 21.5427 54.1653L26.1799 57.3042C26.6878 57.6479 27.3537 57.6479 27.8616 57.3042L32.4988 54.1653C35.1865 52.346 38.1594 50.1724 40.4638 47.5828C42.7761 44.9843 44.5208 41.8475 44.5208 38.1216C44.5208 32.7206 39.7825 28.562 34.2208 28.562C31.3538 28.562 28.8311 29.9063 27.0208 31.6456C25.2104 29.9063 22.6877 28.562 19.8208 28.562Z" fill="white"/>
<path d="M14.499 43.0488C14.2288 43.0488 13.9985 43 13.8081 42.9023C13.6177 42.8031 13.4728 42.6501 13.3735 42.4434C13.2743 42.2367 13.2246 41.9722 13.2246 41.6499C13.2246 41.3162 13.2808 41.0444 13.3931 40.8345C13.507 40.6229 13.6641 40.4674 13.8643 40.3682C14.0661 40.2689 14.2996 40.2192 14.5649 40.2192C14.7537 40.2192 14.9165 40.238 15.0532 40.2754C15.1916 40.3112 15.312 40.3543 15.4146 40.4048L15.1948 40.981C15.0776 40.9338 14.9686 40.8955 14.8677 40.8662C14.7668 40.8353 14.6659 40.8198 14.5649 40.8198C14.4347 40.8198 14.3265 40.8507 14.2402 40.9126C14.154 40.9728 14.0897 41.064 14.0474 41.186C14.005 41.3081 13.9839 41.4611 13.9839 41.645C13.9839 41.8257 14.0067 41.9754 14.0522 42.0942C14.0978 42.2131 14.1637 42.3018 14.25 42.3604C14.3363 42.4173 14.4412 42.4458 14.5649 42.4458C14.7196 42.4458 14.8571 42.4255 14.9775 42.3848C15.098 42.3424 15.2152 42.2839 15.3291 42.209V42.8462C15.2152 42.9178 15.0955 42.9691 14.9702 43C14.8465 43.0326 14.6895 43.0488 14.499 43.0488ZM17.4585 39.2012V39.9751C17.4585 40.1102 17.4536 40.2388 17.4438 40.3608C17.4357 40.4829 17.4292 40.5692 17.4243 40.6196H17.4634C17.522 40.5252 17.5911 40.4487 17.6709 40.3901C17.7523 40.3315 17.8418 40.2884 17.9395 40.2607C18.0371 40.2331 18.1421 40.2192 18.2544 40.2192C18.4513 40.2192 18.623 40.2542 18.7695 40.3242C18.916 40.3926 19.0299 40.5008 19.1113 40.6489C19.1927 40.7954 19.2334 40.9858 19.2334 41.2202V43H18.4888V41.4058C18.4888 41.2104 18.453 41.0632 18.3813 40.9639C18.3097 40.8646 18.1991 40.8149 18.0493 40.8149C17.8996 40.8149 17.7816 40.8499 17.6953 40.9199C17.609 40.9883 17.548 41.09 17.5122 41.2251C17.4764 41.3586 17.4585 41.5221 17.4585 41.7158V43H16.7139V39.2012H17.4585ZM21.8682 40.2144C22.2344 40.2144 22.5151 40.2941 22.7104 40.4536C22.9058 40.6131 23.0034 40.8556 23.0034 41.1812V43H22.4834L22.3394 42.6289H22.3198C22.2417 42.7266 22.1619 42.8063 22.0806 42.8682C21.9992 42.93 21.9056 42.9756 21.7998 43.0049C21.694 43.0342 21.5654 43.0488 21.4141 43.0488C21.2529 43.0488 21.1081 43.0179 20.9795 42.9561C20.8525 42.8942 20.7524 42.7998 20.6792 42.6729C20.606 42.5443 20.5693 42.3815 20.5693 42.1846C20.5693 41.8949 20.6711 41.6816 20.8745 41.5449C21.078 41.4066 21.3831 41.3301 21.79 41.3154L22.2637 41.3008V41.1812C22.2637 41.0379 22.2262 40.9329 22.1514 40.8662C22.0765 40.7995 21.9723 40.7661 21.8389 40.7661C21.707 40.7661 21.5776 40.7848 21.4507 40.8223C21.3237 40.8597 21.1968 40.9069 21.0698 40.9639L20.8232 40.4609C20.9681 40.3844 21.13 40.3242 21.3091 40.2803C21.4897 40.2363 21.6761 40.2144 21.8682 40.2144ZM22.2637 41.7354L21.9756 41.7451C21.7347 41.7516 21.5671 41.7948 21.4727 41.8745C21.3799 41.9543 21.3335 42.0592 21.3335 42.1895C21.3335 42.3034 21.3669 42.3848 21.4336 42.4336C21.5003 42.4808 21.5874 42.5044 21.6948 42.5044C21.8543 42.5044 21.9886 42.4572 22.0977 42.3628C22.2083 42.2684 22.2637 42.1341 22.2637 41.96V41.7354ZM25.2671 43H24.5225V39.2012H25.2671V43ZM27.5454 43H26.8008V39.2012H27.5454V43ZM30.2046 40.2192C30.4569 40.2192 30.6742 40.2681 30.8564 40.3657C31.0387 40.4618 31.1795 40.6017 31.2788 40.7856C31.3781 40.9696 31.4277 41.1942 31.4277 41.4595V41.8208H29.6675C29.6756 42.0308 29.7383 42.196 29.8555 42.3164C29.9743 42.4352 30.1387 42.4946 30.3486 42.4946C30.5228 42.4946 30.6823 42.4767 30.8271 42.4409C30.972 42.4051 31.1209 42.3514 31.2739 42.2798V42.856C31.1388 42.9227 30.9972 42.9715 30.8491 43.0024C30.7026 43.0334 30.5244 43.0488 30.3145 43.0488C30.041 43.0488 29.7985 42.9984 29.5869 42.8975C29.377 42.7965 29.2118 42.6427 29.0913 42.436C28.9725 42.2293 28.9131 41.9689 28.9131 41.6548C28.9131 41.3358 28.9668 41.0705 29.0742 40.8589C29.1833 40.6457 29.3346 40.4862 29.5283 40.3804C29.722 40.2729 29.9474 40.2192 30.2046 40.2192ZM30.2095 40.749C30.0646 40.749 29.9442 40.7954 29.8481 40.8882C29.7537 40.981 29.6992 41.1266 29.6846 41.3252H30.7295C30.7279 41.2145 30.7075 41.116 30.6685 41.0298C30.631 40.9435 30.5741 40.8752 30.4976 40.8247C30.4227 40.7743 30.3267 40.749 30.2095 40.749ZM34.3335 40.2192C34.6248 40.2192 34.8592 40.299 35.0366 40.4585C35.214 40.6164 35.3027 40.8703 35.3027 41.2202V43H34.5581V41.4058C34.5581 41.2104 34.5223 41.0632 34.4507 40.9639C34.3807 40.8646 34.27 40.8149 34.1187 40.8149C33.8908 40.8149 33.7354 40.8923 33.6523 41.0469C33.5693 41.2015 33.5278 41.4245 33.5278 41.7158V43H32.7832V40.2705H33.3521L33.4521 40.6196H33.4937C33.5522 40.5252 33.6247 40.4487 33.7109 40.3901C33.7988 40.3315 33.8957 40.2884 34.0015 40.2607C34.1089 40.2331 34.2196 40.2192 34.3335 40.2192ZM37.6177 44.2012C37.2368 44.2012 36.9455 44.1344 36.7437 44.001C36.5435 43.8691 36.4434 43.6836 36.4434 43.4443C36.4434 43.2799 36.4946 43.1424 36.5972 43.0317C36.6997 42.9211 36.8503 42.8421 37.0488 42.7949C36.9723 42.7624 36.9056 42.7095 36.8486 42.6362C36.7917 42.5614 36.7632 42.4824 36.7632 42.3994C36.7632 42.2952 36.7933 42.209 36.8535 42.1406C36.9137 42.0706 37.0008 42.0023 37.1147 41.9355C36.9715 41.8737 36.8576 41.7744 36.7729 41.6377C36.6899 41.501 36.6484 41.3398 36.6484 41.1543C36.6484 40.9557 36.6916 40.7873 36.7778 40.6489C36.8657 40.509 36.9927 40.4023 37.1587 40.3291C37.3263 40.2559 37.5298 40.2192 37.769 40.2192C37.8195 40.2192 37.8781 40.2225 37.9448 40.229C38.0116 40.2355 38.0726 40.2428 38.1279 40.251C38.1849 40.2591 38.2231 40.2656 38.2427 40.2705H39.1948V40.6489L38.7676 40.7588C38.8066 40.819 38.8359 40.8833 38.8555 40.9517C38.875 41.02 38.8848 41.0924 38.8848 41.1689C38.8848 41.4619 38.7822 41.6906 38.5771 41.855C38.3737 42.0177 38.0905 42.0991 37.7275 42.0991C37.6413 42.0942 37.5599 42.0877 37.4834 42.0796C37.446 42.1089 37.4175 42.1398 37.3979 42.1724C37.3784 42.2049 37.3687 42.2391 37.3687 42.2749C37.3687 42.3107 37.3833 42.3408 37.4126 42.3652C37.4435 42.388 37.4891 42.4059 37.5493 42.4189C37.6112 42.4303 37.6877 42.436 37.7788 42.436H38.2427C38.5422 42.436 38.77 42.5003 38.9263 42.6289C39.0841 42.7575 39.1631 42.9463 39.1631 43.1953C39.1631 43.5143 39.0296 43.7617 38.7627 43.9375C38.4974 44.1133 38.1157 44.2012 37.6177 44.2012ZM37.6494 43.7153C37.8268 43.7153 37.979 43.6982 38.106 43.6641C38.2345 43.6315 38.333 43.5843 38.4014 43.5225C38.4697 43.4622 38.5039 43.3898 38.5039 43.3052C38.5039 43.2368 38.4836 43.1823 38.4429 43.1416C38.4038 43.1025 38.3436 43.0749 38.2622 43.0586C38.1825 43.0423 38.0799 43.0342 37.9546 43.0342H37.5688C37.4777 43.0342 37.3955 43.0488 37.3223 43.0781C37.2507 43.1074 37.1937 43.1481 37.1514 43.2002C37.109 43.2539 37.0879 43.3158 37.0879 43.3857C37.0879 43.4883 37.1367 43.5688 37.2344 43.6274C37.3337 43.686 37.472 43.7153 37.6494 43.7153ZM37.769 41.645C37.909 41.645 38.0116 41.6019 38.0767 41.5156C38.1418 41.4294 38.1743 41.3122 38.1743 41.1641C38.1743 40.9997 38.1401 40.8768 38.0718 40.7954C38.005 40.7124 37.9041 40.6709 37.769 40.6709C37.6323 40.6709 37.5298 40.7124 37.4614 40.7954C37.3931 40.8768 37.3589 40.9997 37.3589 41.1641C37.3589 41.3122 37.3923 41.4294 37.459 41.5156C37.5273 41.6019 37.6307 41.645 37.769 41.645ZM41.522 40.2192C41.7743 40.2192 41.9915 40.2681 42.1738 40.3657C42.3561 40.4618 42.4969 40.6017 42.5962 40.7856C42.6955 40.9696 42.7451 41.1942 42.7451 41.4595V41.8208H40.9849C40.993 42.0308 41.0557 42.196 41.1729 42.3164C41.2917 42.4352 41.4561 42.4946 41.666 42.4946C41.8402 42.4946 41.9997 42.4767 42.1445 42.4409C42.2894 42.4051 42.4383 42.3514 42.5913 42.2798V42.856C42.4562 42.9227 42.3146 42.9715 42.1665 43.0024C42.02 43.0334 41.8418 43.0488 41.6318 43.0488C41.3584 43.0488 41.1159 42.9984 40.9043 42.8975C40.6943 42.7965 40.5291 42.6427 40.4087 42.436C40.2899 42.2293 40.2305 41.9689 40.2305 41.6548C40.2305 41.3358 40.2842 41.0705 40.3916 40.8589C40.5007 40.6457 40.652 40.4862 40.8457 40.3804C41.0394 40.2729 41.2648 40.2192 41.522 40.2192ZM41.5269 40.749C41.382 40.749 41.2616 40.7954 41.1655 40.8882C41.0711 40.981 41.0166 41.1266 41.002 41.3252H42.0469C42.0452 41.2145 42.0249 41.116 41.9858 41.0298C41.9484 40.9435 41.8914 40.8752 41.8149 40.8247C41.7401 40.7743 41.644 40.749 41.5269 40.749Z" fill="#FBBEBE"/>
</svg>
