<svg width="70" height="67" viewBox="0 0 70 67" fill="none" xmlns="http://www.w3.org/2000/svg">
<path d="M20.6 0C9.47657 0 0 9.47181 0 21.7733C0 30.2596 3.48939 37.4043 8.11396 43.3227C12.7226 49.2208 18.6686 54.1715 24.0439 58.3151L33.3184 65.4644C34.334 66.2474 35.666 66.2474 36.6816 65.4644L45.9561 58.3151C51.3314 54.1715 57.2774 49.2208 61.886 43.3227C66.5106 37.4043 70 30.2596 70 21.7733C70 9.47181 60.5234 0 49.4 0C43.6661 0 38.6206 3.06178 35 7.02349C31.3794 3.06178 26.3339 0 20.6 0Z" fill="#EA7186"/>
</svg>
