<svg width="24" height="24" viewBox="0 0 24 24" fill="none" xmlns="http://www.w3.org/2000/svg">
<path d="M21.8098 6.22724C21.8677 6.14647 21.7821 6.04218 21.6894 6.07811C21.0307 6.33344 20.3423 6.50571 19.64 6.5906C20.4219 6.12348 21.0253 5.4124 21.3599 4.57053C21.394 4.48477 21.3003 4.40819 21.2195 4.4528C20.4928 4.85414 19.7091 5.14313 18.8949 5.30957C18.8608 5.31654 18.8257 5.30494 18.8018 5.27969C18.1908 4.63502 17.3866 4.20578 16.5098 4.05745C15.6147 3.90601 14.6946 4.05596 13.8938 4.48379C13.0931 4.91162 12.457 5.59313 12.0853 6.42144C11.7319 7.209 11.6365 8.08691 11.8108 8.93003C11.8243 8.99545 11.7731 9.05721 11.7065 9.05307C10.1224 8.95469 8.57469 8.53336 7.15868 7.81446C5.74627 7.09739 4.49554 6.09983 3.48267 4.8833C3.43772 4.82931 3.35252 4.83629 3.31977 4.89845C3.0046 5.49651 2.83958 6.16311 2.84003 6.8406C2.83875 7.51498 3.00425 8.17922 3.32178 8.77416C3.63932 9.36911 4.09905 9.87631 4.66003 10.2506C4.0651 10.2344 3.48178 10.0873 2.95128 9.82067C2.88291 9.78631 2.8009 9.83524 2.80446 9.91167C2.84583 10.8009 3.17228 11.6936 3.73734 12.3786C4.33866 13.1074 5.17328 13.6062 6.10003 13.7906C5.74328 13.8992 5.3729 13.9564 5.00003 13.9606C4.79709 13.9582 4.59454 13.9433 4.39356 13.9158C4.31904 13.9056 4.2582 13.9764 4.28428 14.0469C4.5607 14.7944 5.04903 15.4467 5.6911 15.9228C6.37755 16.4318 7.2056 16.7142 8.06003 16.7306C6.61723 17.8659 4.83591 18.4855 3.00003 18.4906C2.81138 18.4912 2.62282 18.4851 2.43471 18.4723C2.3287 18.4651 2.27995 18.6063 2.37132 18.6605C4.16009 19.7221 6.20462 20.2831 8.29003 20.2806C9.82972 20.2966 11.3572 20.0056 12.7831 19.4247C14.2091 18.8437 15.5051 17.9845 16.5952 16.8971C17.6854 15.8097 18.548 14.516 19.1326 13.0915C19.7172 11.667 20.0121 10.1403 20 8.6006V8.12077C20 8.0892 20.015 8.05951 20.0402 8.04048C20.7184 7.52834 21.3149 6.91691 21.8098 6.22724Z" fill="white"/>
</svg>
